<svg xmlns="http://www.w3.org/2000/svg" viewBox="0 0 200 200" role="img" aria-label="ほし">
  <!-- white die-cut underlay -->
  <g fill="#ffffff" stroke="#ffffff" stroke-width="15" stroke-linejoin="round" stroke-linecap="round">
    <path d="M100,36 L115.9,78.2 L160.9,80.2 L125.7,108.3 L137.6,151.8 L100,127 L62.4,151.8 L74.3,108.3 L39.1,80.2 L84.1,78.2 Z"/>
  </g>
  <!-- star body -->
  <path d="M100,36 L115.9,78.2 L160.9,80.2 L125.7,108.3 L137.6,151.8 L100,127 L62.4,151.8 L74.3,108.3 L39.1,80.2 L84.1,78.2 Z"
        fill="#FFC42E" stroke="#3d2a1c" stroke-width="3.4" stroke-linejoin="round"/>
  <!-- facet shading -->
  <path d="M100,100 L115.9,78.2 L100,36 Z" fill="#FFD65E" opacity="0.55"/>
  <path d="M100,100 L84.1,78.2 L100,36 Z" fill="#FFD65E" opacity="0.55"/>
  <path d="M100,100 L62.4,151.8 L100,127 Z" fill="#F0A81E" opacity="0.5"/>
  <path d="M100,100 L137.6,151.8 L100,127 Z" fill="#F0A81E" opacity="0.5"/>
  <!-- glossy shine -->
  <path d="M96,52 Q80,72 78,86 Q90,80 100,64 Z" fill="#ffffff" opacity="0.5"/>
  <circle cx="84" cy="90" r="3.4" fill="#ffffff" opacity="0.6"/>
</svg>
