<svg xmlns="http://www.w3.org/2000/svg" viewBox="0 0 200 200" role="img" aria-label="いちご">
  <!-- white die-cut underlay -->
  <g fill="#ffffff" stroke="#ffffff" stroke-width="15" stroke-linejoin="round" stroke-linecap="round">
    <path d="M100,58 L86,50 Q80,66 92,72 Z"/>
    <path d="M100,58 L114,50 Q120,66 108,72 Z"/>
    <path d="M100,54 L100,40 Q112,46 108,64 Z"/>
    <path d="M100,54 L100,40 Q88,46 92,64 Z"/>
    <path d="M100,170 C74,152 50,124 50,98 C50,80 66,72 82,78 Q100,64 118,78 C134,72 150,80 150,98 C150,124 126,152 100,170 Z"/>
  </g>
  <!-- color -->
  <path d="M100,58 L86,50 Q80,66 92,72 Z" fill="#4FB65E" stroke="#3d2a1c" stroke-width="3.2" stroke-linejoin="round" stroke-linecap="round"/>
  <path d="M100,58 L114,50 Q120,66 108,72 Z" fill="#4FB65E" stroke="#3d2a1c" stroke-width="3.2" stroke-linejoin="round" stroke-linecap="round"/>
  <path d="M100,54 L100,40 Q112,46 108,64 Z" fill="#4FB65E" stroke="#3d2a1c" stroke-width="3.2" stroke-linejoin="round" stroke-linecap="round"/>
  <path d="M100,54 L100,40 Q88,46 92,64 Z" fill="#4FB65E" stroke="#3d2a1c" stroke-width="3.2" stroke-linejoin="round" stroke-linecap="round"/>
  <path d="M100,170 C74,152 50,124 50,98 C50,80 66,72 82,78 Q100,64 118,78 C134,72 150,80 150,98 C150,124 126,152 100,170 Z" fill="#F0384A" stroke="#3d2a1c" stroke-width="3.2" stroke-linejoin="round" stroke-linecap="round"/>
  <ellipse cx="76" cy="100" rx="11" ry="16" fill="#fff" opacity="0.22" transform="rotate(-20 76 100)"/>
  <ellipse cx="100" cy="96" rx="2.4" ry="3.6" fill="#FFD23D" transform="rotate(-18 100 96)" stroke="#C99A12" stroke-width="0.8"/>
  <ellipse cx="80" cy="104" rx="2.4" ry="3.6" fill="#FFD23D" transform="rotate(18 80 104)" stroke="#C99A12" stroke-width="0.8"/>
  <ellipse cx="120" cy="104" rx="2.4" ry="3.6" fill="#FFD23D" transform="rotate(-18 120 104)" stroke="#C99A12" stroke-width="0.8"/>
  <ellipse cx="88" cy="122" rx="2.4" ry="3.6" fill="#FFD23D" transform="rotate(18 88 122)" stroke="#C99A12" stroke-width="0.8"/>
  <ellipse cx="112" cy="122" rx="2.4" ry="3.6" fill="#FFD23D" transform="rotate(-18 112 122)" stroke="#C99A12" stroke-width="0.8"/>
  <ellipse cx="100" cy="134" rx="2.4" ry="3.6" fill="#FFD23D" transform="rotate(18 100 134)" stroke="#C99A12" stroke-width="0.8"/>
  <ellipse cx="72" cy="120" rx="2.4" ry="3.6" fill="#FFD23D" transform="rotate(-18 72 120)" stroke="#C99A12" stroke-width="0.8"/>
  <ellipse cx="128" cy="120" rx="2.4" ry="3.6" fill="#FFD23D" transform="rotate(18 128 120)" stroke="#C99A12" stroke-width="0.8"/>
  <ellipse cx="95" cy="150" rx="2.4" ry="3.6" fill="#FFD23D" transform="rotate(-18 95 150)" stroke="#C99A12" stroke-width="0.8"/>
  <ellipse cx="105" cy="150" rx="2.4" ry="3.6" fill="#FFD23D" transform="rotate(18 105 150)" stroke="#C99A12" stroke-width="0.8"/>
  <ellipse cx="78" cy="124" rx="9" ry="6" fill="#ff7ba0" opacity="0.8"/>
  <ellipse cx="122" cy="124" rx="9" ry="6" fill="#ff7ba0" opacity="0.8"/>
  <circle cx="86" cy="110" r="8" fill="#2a1e16"/>
  <circle cx="114" cy="110" r="8" fill="#2a1e16"/>
  <circle cx="89" cy="107" r="3" fill="#fff"/>
  <circle cx="117" cy="107" r="3" fill="#fff"/>
  <path d="M92,124 Q100,131 108,124" fill="none" stroke="#3d2a1c" stroke-width="3" stroke-linecap="round"/>
</svg>
