<svg xmlns="http://www.w3.org/2000/svg" viewBox="0 0 200 200" role="img" aria-label="みかん">
  <!-- white die-cut underlay -->
  <g fill="#ffffff" stroke="#ffffff" stroke-width="15" stroke-linejoin="round" stroke-linecap="round">
    <path d="M108,58 Q126,44 140,54 Q128,68 108,64 Q104,60 108,58 Z"/>
    <rect x="96" y="52" width="8" height="14" rx="3"/>
    <path d="M100,62 C68,62 42,84 42,110 C42,142 70,164 100,164 C130,164 158,142 158,110 C158,84 132,62 100,62 Z"/>
  </g>
  <!-- color -->
  <path d="M108,58 Q126,44 140,54 Q128,68 108,64 Q104,60 108,58 Z" fill="#6BA83C" stroke="#3d2a1c" stroke-width="3.2" stroke-linejoin="round" stroke-linecap="round"/>
  <rect x="96" y="52" width="8" height="14" rx="3" fill="#7A5230" stroke="#3d2a1c" stroke-width="3.2" stroke-linejoin="round" stroke-linecap="round"/>
  <path d="M100,62 C68,62 42,84 42,110 C42,142 70,164 100,164 C130,164 158,142 158,110 C158,84 132,62 100,62 Z" fill="#FF9F1C" stroke="#3d2a1c" stroke-width="3.2" stroke-linejoin="round" stroke-linecap="round"/>
  <ellipse cx="72" cy="92" rx="16" ry="11" fill="#fff" opacity="0.24" transform="rotate(-16 72 92)"/>
  <g stroke="#E07A12" stroke-width="1.6" stroke-linecap="round" opacity="0.45" fill="none">
    <path d="M100,150 Q92,132 84,150"/><path d="M100,152 Q100,132 100,152"/><path d="M100,150 Q108,132 116,150"/></g>
  <ellipse cx="74" cy="130" rx="9" ry="6" fill="#ff7ba0" opacity="0.8"/>
  <ellipse cx="126" cy="130" rx="9" ry="6" fill="#ff7ba0" opacity="0.8"/>
  <circle cx="84" cy="116" r="8" fill="#2a1e16"/>
  <circle cx="116" cy="116" r="8" fill="#2a1e16"/>
  <circle cx="87" cy="113" r="3" fill="#fff"/>
  <circle cx="119" cy="113" r="3" fill="#fff"/>
  <path d="M92,130 Q100,137 108,130" fill="none" stroke="#3d2a1c" stroke-width="3" stroke-linecap="round"/>
</svg>
