<svg xmlns="http://www.w3.org/2000/svg" viewBox="0 0 200 200" role="img" aria-label="れもん">
  <!-- white die-cut underlay -->
  <g fill="#ffffff" stroke="#ffffff" stroke-width="15" stroke-linejoin="round" stroke-linecap="round">
    <path d="M50,104 L30,98 Q26,104 30,110 L50,104 Z"/>
    <path d="M150,104 L170,98 Q174,104 170,110 L150,104 Z"/>
    <path d="M46,104 C46,80 74,68 100,68 C126,68 154,80 154,104 C154,128 126,138 100,138 C74,138 46,128 46,104 Z"/>
    <path d="M116,64 Q132,44 152,50 Q142,72 118,68 Q112,66 116,64 Z"/>
  </g>
  <!-- leaf -->
  <path d="M116,64 Q132,44 152,50 Q142,72 118,68 Q112,66 116,64 Z" fill="#57BE77" stroke="#3d2a1c" stroke-width="3" stroke-linejoin="round"/>
  <path d="M120,66 Q136,58 148,52" fill="none" stroke="#3a9457" stroke-width="2" stroke-linecap="round" opacity="0.8"/>
  <!-- tips -->
  <path d="M50,104 L30,98 Q26,104 30,110 L50,104 Z" fill="#F2C21E" stroke="#3d2a1c" stroke-width="3.2" stroke-linejoin="round"/>
  <path d="M150,104 L170,98 Q174,104 170,110 L150,104 Z" fill="#F2C21E" stroke="#3d2a1c" stroke-width="3.2" stroke-linejoin="round"/>
  <!-- body -->
  <path d="M46,104 C46,80 74,68 100,68 C126,68 154,80 154,104 C154,128 126,138 100,138 C74,138 46,128 46,104 Z" fill="#FFD836" stroke="#3d2a1c" stroke-width="3.2" stroke-linejoin="round"/>
  <!-- highlight -->
  <ellipse cx="78" cy="90" rx="18" ry="10" fill="#ffffff" opacity="0.32" transform="rotate(-18 78 90)"/>
  <!-- subtle cheeks -->
  <ellipse cx="80" cy="112" rx="7" ry="4.5" fill="#ff9a5c" opacity="0.4"/>
  <ellipse cx="120" cy="112" rx="7" ry="4.5" fill="#ff9a5c" opacity="0.4"/>
  <!-- subtle face -->
  <circle cx="88" cy="104" r="4.6" fill="#2a1e16"/>
  <circle cx="112" cy="104" r="4.6" fill="#2a1e16"/>
  <circle cx="89.6" cy="102.4" r="1.6" fill="#fff"/>
  <circle cx="113.6" cy="102.4" r="1.6" fill="#fff"/>
  <path d="M92,116 Q100,122 108,116" fill="none" stroke="#3d2a1c" stroke-width="2.6" stroke-linecap="round"/>
</svg>
